STARTFONT 2.1
FONT -FontForge-ITC Benguiat Gothic Std-Bold-R-Normal--26-250-75-75-P-136-ISO8859-1
SIZE 25 75 75
FONTBOUNDINGBOX 30 30 -4 -6
COMMENT "Generated by fontforge, http://fontforge.sourceforge.net"
COMMENT "Copyright 1990, 1995 , 2002Adobe Systems Incorporated. All Rights Reserved. ITC Benguiat Gothic is a registered trademark of International Typeface Corporation."
STARTPROPERTIES 40
FOUNDRY "FontForge"
FAMILY_NAME "ITC Benguiat Gothic Std"
WEIGHT_NAME "Bold"
SLANT "R"
SETWIDTH_NAME "Normal"
ADD_STYLE_NAME ""
PIXEL_SIZE 26
POINT_SIZE 250
RESOLUTION_X 75
RESOLUTION_Y 75
SPACING "P"
AVERAGE_WIDTH 136
CHARSET_REGISTRY "ISO8859"
CHARSET_ENCODING "1"
FONTNAME_REGISTRY ""
CHARSET_COLLECTIONS "ISOLatin1Encoding"
FONT_NAME "BenguiatGothicStd-Bold"
FACE_NAME "ITC Benguiat Gothic Std Bold"
COPYRIGHT "Copyright 1990, 1995 , 2002Adobe Systems Incorporated. All Rights Reserved. ITC Benguiat Gothic is a registered trademark of International Typeface Corporation."
FONT_VERSION "001.001"
FONT_ASCENT 18
FONT_DESCENT 8
UNDERLINE_POSITION -3
UNDERLINE_THICKNESS 2
X_HEIGHT 13
CAP_HEIGHT 17
RAW_ASCENT 691
RAW_DESCENT 309
NORM_SPACE 8
RELATIVE_WEIGHT 70
RELATIVE_SETWIDTH 50
SUPERSCRIPT_X 0
SUPERSCRIPT_Y 9
SUPERSCRIPT_SIZE 15
SUBSCRIPT_X 0
SUBSCRIPT_Y 1
SUBSCRIPT_SIZE 15
FIGURE_WIDTH 16
AVG_LOWERCASE_WIDTH 130
AVG_UPPERCASE_WIDTH 156
ENDPROPERTIES
CHARS 253
STARTCHAR space
ENCODING 32
SWIDTH 305 0
DWIDTH 8 0
BBX 1 1 0 0
BITMAP
00
ENDCHAR
STARTCHAR exclam
ENCODING 33
SWIDTH 333 0
DWIDTH 9 0
BBX 4 18 2 0
BITMAP
70
F0
F0
F0
F0
70
70
70
70
70
70
70
20
00
70
F0
F0
70
ENDCHAR
STARTCHAR quotedbl
ENCODING 34
SWIDTH 333 0
DWIDTH 9 0
BBX 7 7 1 11
BITMAP
CE
EE
EE
EE
EE
EE
CE
ENDCHAR
STARTCHAR numbersign
ENCODING 35
SWIDTH 611 0
DWIDTH 16 0
BBX 13 18 1 0
BITMAP
0E30
0E70
0E70
0C70
0C60
7FF8
7FF8
1C60
1CE0
1CE0
1CE0
FFF8
FFF8
18C0
38C0
39C0
39C0
39C0
ENDCHAR
STARTCHAR dollar
ENCODING 36
SWIDTH 611 0
DWIDTH 16 0
BBX 14 23 1 -3
BITMAP
0700
0700
0700
1FE0
7FF0
FFF0
F000
F000
FF00
7FF0
3FF8
07FC
073C
071C
073C
0778
FFF8
FFF0
FFC0
0700
0700
0700
0200
ENDCHAR
STARTCHAR percent
ENCODING 37
SWIDTH 944 0
DWIDTH 25 0
BBX 22 18 1 0
BITMAP
1E0300
7F0700
7F8700
F38F00
E3CE00
E3DE00
F39C00
7FBC00
3F3860
0E7BF8
0073FC
00F79C
00E71C
01E71C
01C71C
03C7FC
0383F8
0381F0
ENDCHAR
STARTCHAR ampersand
ENCODING 38
SWIDTH 778 0
DWIDTH 20 0
BBX 18 18 1 0
BITMAP
07C000
1FE000
1FF000
3CF000
3C7200
1CF700
1FE700
3FE780
7F8780
F3E700
F1F700
E0FF00
E07F00
F01E00
F83F00
7FFFC0
3FF3C0
0FC1C0
ENDCHAR
STARTCHAR quotesingle
ENCODING 39
SWIDTH 222 0
DWIDTH 6 0
BBX 2 7 2 11
BITMAP
C0
C0
C0
C0
C0
C0
C0
ENDCHAR
STARTCHAR parenleft
ENCODING 40
SWIDTH 389 0
DWIDTH 10 0
BBX 8 23 1 -5
BITMAP
03
0F
0F
1E
3C
38
78
70
70
70
F0
F0
F0
70
70
70
78
38
3C
1E
0E
07
03
ENDCHAR
STARTCHAR parenright
ENCODING 41
SWIDTH 389 0
DWIDTH 10 0
BBX 8 23 1 -5
BITMAP
C0
F0
70
38
3C
1C
1E
0E
0E
0E
0F
0F
0F
0E
0E
0E
1E
1C
3C
38
70
F0
C0
ENDCHAR
STARTCHAR asterisk
ENCODING 42
SWIDTH 444 0
DWIDTH 12 0
BBX 8 9 2 9
BITMAP
18
18
DF
FF
18
FE
DF
98
18
ENDCHAR
STARTCHAR plus
ENCODING 43
SWIDTH 600 0
DWIDTH 16 0
BBX 13 14 1 0
BITMAP
0700
0700
0700
0700
0700
0700
FFF8
FFF8
FFF8
0700
0700
0700
0700
0700
ENDCHAR
STARTCHAR comma
ENCODING 44
SWIDTH 305 0
DWIDTH 8 0
BBX 5 7 1 -3
BITMAP
38
38
78
70
70
E0
60
ENDCHAR
STARTCHAR hyphen
ENCODING 45
SWIDTH 333 0
DWIDTH 9 0
BBX 7 3 1 5
BITMAP
FC
FE
7C
ENDCHAR
STARTCHAR period
ENCODING 46
SWIDTH 305 0
DWIDTH 8 0
BBX 4 4 2 0
BITMAP
60
F0
F0
60
ENDCHAR
STARTCHAR slash
ENCODING 47
SWIDTH 278 0
DWIDTH 7 0
BBX 9 18 -1 0
BITMAP
0380
0380
0780
0700
0700
0F00
0E00
0E00
1C00
1C00
3C00
3800
3800
7800
7000
F000
E000
6000
ENDCHAR
STARTCHAR zero
ENCODING 48
SWIDTH 611 0
DWIDTH 16 0
BBX 14 18 1 0
BITMAP
0FC0
1FE0
3FF0
7CF8
7078
F03C
F03C
E03C
E01C
E01C
E03C
F03C
F03C
7078
7CF8
3FF0
1FE0
0FC0
ENDCHAR
STARTCHAR one
ENCODING 49
SWIDTH 611 0
DWIDTH 16 0
BBX 13 18 2 0
BITMAP
0700
7F00
FF00
7F00
0700
0700
0700
0700
0700
0700
0700
0700
0700
0700
0700
7FF0
FFF8
7FF0
ENDCHAR
STARTCHAR two
ENCODING 50
SWIDTH 611 0
DWIDTH 16 0
BBX 14 18 1 0
BITMAP
7FC0
7FF0
7FF8
0078
0078
0078
00F8
01F0
07F0
0FC0
3F80
7E00
7800
F000
F000
FFF8
FFFC
7FFC
ENDCHAR
STARTCHAR three
ENCODING 51
SWIDTH 611 0
DWIDTH 16 0
BBX 14 18 1 0
BITMAP
7FF0
FFF8
7FF8
01F0
07C0
1F00
3FC0
3FF0
1FF8
007C
003C
003C
001C
003C
007C
FFF8
FFF0
FFC0
ENDCHAR
STARTCHAR four
ENCODING 52
SWIDTH 611 0
DWIDTH 16 0
BBX 16 18 0 0
BITMAP
00F0
03F0
07F0
0FF0
1E70
1C70
3870
3870
7070
7070
7070
FFFE
FFFF
7FFE
0070
0070
0070
0070
ENDCHAR
STARTCHAR five
ENCODING 53
SWIDTH 611 0
DWIDTH 16 0
BBX 14 18 1 0
BITMAP
3FF0
7FF0
7FF0
7000
7000
7F80
7FE0
7FF8
00F8
003C
003C
001C
001C
003C
007C
FFF8
FFF0
FFC0
ENDCHAR
STARTCHAR six
ENCODING 54
SWIDTH 611 0
DWIDTH 16 0
BBX 14 18 1 0
BITMAP
07F8
1FFC
3FF8
7C00
7000
F7C0
FFF0
FFF8
F87C
F03C
F03C
F01C
F01C
F03C
7878
3FF8
1FF0
0FC0
ENDCHAR
STARTCHAR seven
ENCODING 55
SWIDTH 611 0
DWIDTH 16 0
BBX 12 18 2 0
BITMAP
FFF0
FFF0
FFF0
0070
00F0
00E0
01E0
03C0
07C0
0780
0F00
0E00
1E00
1E00
1C00
1C00
1C00
0C00
ENDCHAR
STARTCHAR eight
ENCODING 56
SWIDTH 611 0
DWIDTH 16 0
BBX 14 18 1 0
BITMAP
0FC0
3FF0
7FF8
7878
7038
7078
7878
3FF0
3FF0
7FF8
F87C
F03C
E03C
F03C
F87C
7FF8
3FF0
0FC0
ENDCHAR
STARTCHAR nine
ENCODING 57
SWIDTH 611 0
DWIDTH 16 0
BBX 14 18 1 0
BITMAP
0FC0
3FE0
7FF0
F8F8
F038
E03C
E03C
E03C
F03C
F8FC
7FFC
3FFC
0FBC
0078
00F8
7FF0
FFE0
7F80
ENDCHAR
STARTCHAR colon
ENCODING 58
SWIDTH 305 0
DWIDTH 8 0
BBX 4 11 2 0
BITMAP
60
F0
F0
60
00
00
00
60
F0
F0
60
ENDCHAR
STARTCHAR semicolon
ENCODING 59
SWIDTH 305 0
DWIDTH 8 0
BBX 5 14 1 -3
BITMAP
70
70
70
30
00
00
00
38
78
70
70
E0
E0
40
ENDCHAR
STARTCHAR less
ENCODING 60
SWIDTH 600 0
DWIDTH 16 0
BBX 13 14 1 0
BITMAP
0008
0038
01F8
07F0
1FC0
FE00
F800
F800
FE00
1FC0
07F0
01F8
0038
0008
ENDCHAR
STARTCHAR equal
ENCODING 61
SWIDTH 600 0
DWIDTH 16 0
BBX 13 9 1 2
BITMAP
FFF8
FFF8
FFF8
0000
0000
0000
FFF8
FFF8
FFF8
ENDCHAR
STARTCHAR greater
ENCODING 62
SWIDTH 600 0
DWIDTH 16 0
BBX 13 14 1 0
BITMAP
8000
F000
FC00
7F00
0FE0
03F8
0078
0078
03F8
0FE0
7F00
FC00
F000
8000
ENDCHAR
STARTCHAR question
ENCODING 63
SWIDTH 500 0
DWIDTH 13 0
BBX 12 18 0 0
BITMAP
7FC0
FFE0
7FF0
00F0
00F0
00F0
01E0
07C0
0F80
0E00
1E00
0E00
0000
0000
0C00
1E00
1E00
0C00
ENDCHAR
STARTCHAR at
ENCODING 64
SWIDTH 800 0
DWIDTH 21 0
BBX 19 18 1 0
BITMAP
01F800
0FFE00
1E0700
380180
71E6C0
63F6C0
E7BCE0
E61CE0
EE0CC0
EE0CC0
EE1CC0
6F3980
67FF00
73DE00
380180
1E0700
0FFE00
01F800
ENDCHAR
STARTCHAR A
ENCODING 65
SWIDTH 667 0
DWIDTH 17 0
BBX 16 18 1 0
BITMAP
0380
07C0
0FE0
0EE0
1EF0
1C70
3C78
3838
3F3C
7FDC
7FFC
F07E
F03E
E01E
E00E
E00F
E00F
E006
ENDCHAR
STARTCHAR B
ENCODING 66
SWIDTH 611 0
DWIDTH 16 0
BBX 13 18 2 0
BITMAP
FFE0
FFF0
FFF0
E070
E070
F0F0
FFE0
FFC0
E7E0
E0F0
E078
E078
E038
E038
E078
FFF0
FFF0
FFC0
ENDCHAR
STARTCHAR C
ENCODING 67
SWIDTH 611 0
DWIDTH 16 0
BBX 14 18 1 0
BITMAP
0FFC
3FFC
3FFC
7C00
7800
F000
F000
F000
F000
F000
7800
7800
7C00
3E00
1FC0
0FFC
03FC
00FC
ENDCHAR
STARTCHAR D
ENCODING 68
SWIDTH 667 0
DWIDTH 17 0
BBX 14 18 2 0
BITMAP
FC00
FF80
FFC0
E7F0
E1F0
E078
E07C
E03C
E03C
E01C
E01C
E01C
E03C
E03C
E0F8
FFF8
FFF0
FFC0
ENDCHAR
STARTCHAR E
ENCODING 69
SWIDTH 556 0
DWIDTH 14 0
BBX 11 18 2 0
BITMAP
FFE0
FFE0
FFE0
E000
E000
FFE0
FFE0
FFE0
E000
E000
E000
E000
E000
E000
E000
FFE0
FFE0
FFE0
ENDCHAR
STARTCHAR F
ENCODING 70
SWIDTH 500 0
DWIDTH 13 0
BBX 11 18 2 0
BITMAP
FFC0
FFE0
FFC0
E000
E000
FFC0
FFC0
FFC0
E000
E000
E000
E000
E000
E000
E000
E000
E000
E000
ENDCHAR
STARTCHAR G
ENCODING 71
SWIDTH 722 0
DWIDTH 19 0
BBX 16 18 1 0
BITMAP
0FFE
3FFF
7FFE
7C00
F000
F0FF
F0FF
F0FF
F007
F007
F007
7807
7C07
3E07
1FC7
0FFF
03FF
007F
ENDCHAR
STARTCHAR H
ENCODING 72
SWIDTH 611 0
DWIDTH 16 0
BBX 12 18 2 0
BITMAP
E070
E070
E070
E070
E070
FFF0
FFF0
FFF0
E070
E070
E070
E070
E070
E070
E070
E070
E070
C070
ENDCHAR
STARTCHAR I
ENCODING 73
SWIDTH 278 0
DWIDTH 7 0
BBX 3 18 2 0
BITMAP
E0
E0
E0
E0
E0
E0
E0
E0
E0
E0
E0
E0
E0
E0
E0
E0
E0
E0
ENDCHAR
STARTCHAR J
ENCODING 74
SWIDTH 444 0
DWIDTH 12 0
BBX 10 18 0 0
BITMAP
0180
01C0
01C0
01C0
01C0
01C0
01C0
01C0
01C0
01C0
01C0
01C0
01C0
03C0
E3C0
FF80
FF00
3E00
ENDCHAR
STARTCHAR K
ENCODING 75
SWIDTH 611 0
DWIDTH 16 0
BBX 13 18 2 0
BITMAP
E030
E070
E070
E0F0
E1E0
FFC0
FF80
FF80
E7E0
E1E0
E0F0
E070
E078
E038
E038
E038
E038
E018
ENDCHAR
STARTCHAR L
ENCODING 76
SWIDTH 444 0
DWIDTH 12 0
BBX 10 18 2 0
BITMAP
E000
E000
E000
E000
E000
E000
E000
E000
E000
E000
E000
E000
E000
E000
E000
FFC0
FFC0
7F80
ENDCHAR
STARTCHAR M
ENCODING 77
SWIDTH 722 0
DWIDTH 19 0
BBX 16 18 1 0
BITMAP
380C
3C1E
7C3E
7E3E
7E3F
7777
77F7
77E7
73E7
71C7
F007
F007
F007
F007
F007
F007
F007
6003
ENDCHAR
STARTCHAR N
ENCODING 78
SWIDTH 611 0
DWIDTH 16 0
BBX 12 18 2 0
BITMAP
E070
F070
F870
FC70
FF70
EFF0
E7F0
E1F0
E070
E070
E070
E070
E070
E070
E070
E070
E070
E070
ENDCHAR
STARTCHAR O
ENCODING 79
SWIDTH 722 0
DWIDTH 19 0
BBX 17 18 1 0
BITMAP
07E000
1FF800
3FFC00
3C3E00
780F00
F00F00
F00780
F00780
F00780
F00780
F00780
F00780
F00F00
780F00
7C3E00
3FFC00
0FF800
03E000
ENDCHAR
STARTCHAR P
ENCODING 80
SWIDTH 556 0
DWIDTH 14 0
BBX 12 18 2 0
BITMAP
FFE0
FFF0
FFF0
E070
E070
E0F0
E3F0
EFE0
FF80
FE00
F000
E000
E000
E000
E000
E000
E000
E000
ENDCHAR
STARTCHAR Q
ENCODING 81
SWIDTH 722 0
DWIDTH 19 0
BBX 17 22 1 -4
BITMAP
07E000
1FF800
3FFC00
3C3E00
780F00
F00F00
F00780
F00780
F00780
F00780
F38780
F7C780
F3EF00
78FF00
7C7E00
3FFC00
0FF800
03F800
003E00
001F80
001F80
000700
ENDCHAR
STARTCHAR R
ENCODING 82
SWIDTH 611 0
DWIDTH 16 0
BBX 13 18 2 0
BITMAP
FFC0
FFF0
FFF0
E070
E070
FCF0
FFE0
FFC0
E3E0
E1F0
E0F0
E078
E078
E038
E038
E038
E038
C018
ENDCHAR
STARTCHAR S
ENCODING 83
SWIDTH 611 0
DWIDTH 16 0
BBX 14 18 1 0
BITMAP
3FF0
7FF0
FFF0
F000
E000
F800
7FC0
7FF0
0FF8
00F8
003C
003C
003C
003C
0078
FFF8
FFF0
FFC0
ENDCHAR
STARTCHAR T
ENCODING 84
SWIDTH 500 0
DWIDTH 13 0
BBX 13 18 0 0
BITMAP
7FF0
FFF8
FFF8
0700
0700
0700
0700
0700
0700
0700
0700
0700
0700
0700
0700
0700
0700
0700
ENDCHAR
STARTCHAR U
ENCODING 85
SWIDTH 611 0
DWIDTH 16 0
BBX 13 18 1 0
BITMAP
3030
7038
7038
7038
7038
7038
7038
7038
7038
F038
E038
E038
F038
F038
7878
7FF0
3FE0
0FC0
ENDCHAR
STARTCHAR V
ENCODING 86
SWIDTH 611 0
DWIDTH 16 0
BBX 14 18 1 0
BITMAP
E01C
E01C
E01C
E03C
F03C
F03C
F038
7038
7078
7878
3870
38F0
3CE0
1DE0
1FE0
0FC0
0F80
0700
ENDCHAR
STARTCHAR W
ENCODING 87
SWIDTH 833 0
DWIDTH 22 0
BBX 20 18 1 0
BITMAP
E06060
E0E070
E0F0F0
E0F0F0
E0F0F0
E0F0E0
F0F0E0
71F0E0
71F0E0
71F9E0
71B9C0
7BB9C0
3B9DC0
3B9FC0
3F1F80
1F0F80
1E0F00
0E0700
ENDCHAR
STARTCHAR X
ENCODING 88
SWIDTH 611 0
DWIDTH 16 0
BBX 15 18 0 0
BITMAP
300C
781E
783C
3C3C
1E78
0FF0
07E0
07E0
0FF0
1E78
3C3C
3C3C
781E
781E
700E
F00E
F00E
600E
ENDCHAR
STARTCHAR Y
ENCODING 89
SWIDTH 556 0
DWIDTH 14 0
BBX 14 18 0 0
BITMAP
601C
F01C
703C
783C
7878
3C78
1EF0
1FE0
0FC0
0780
0780
0780
0780
0780
0780
0780
0780
0380
ENDCHAR
STARTCHAR Z
ENCODING 90
SWIDTH 500 0
DWIDTH 13 0
BBX 12 18 1 0
BITMAP
7FE0
FFE0
7FE0
00E0
01E0
01C0
03C0
0780
0F00
1E00
3C00
7800
F000
F000
E000
FFE0
FFF0
FFE0
ENDCHAR
STARTCHAR bracketleft
ENCODING 91
SWIDTH 389 0
DWIDTH 10 0
BBX 7 23 2 -5
BITMAP
FE
FE
FE
E0
E0
E0
E0
E0
E0
E0
E0
E0
E0
E0
E0
E0
E0
E0
E0
E0
FC
FE
FE
ENDCHAR
STARTCHAR backslash
ENCODING 92
SWIDTH 278 0
DWIDTH 7 0
BBX 9 18 -1 0
BITMAP
6000
E000
F000
7000
7800
3800
3800
3C00
1C00
1C00
1E00
0E00
0F00
0700
0700
0780
0380
0380
ENDCHAR
STARTCHAR bracketright
ENCODING 93
SWIDTH 389 0
DWIDTH 10 0
BBX 7 23 1 -5
BITMAP
FE
FE
7E
0E
0E
0E
0E
0E
0E
0E
0E
0E
0E
0E
0E
0E
0E
0E
0E
0E
7E
FE
FE
ENDCHAR
STARTCHAR asciicircum
ENCODING 94
SWIDTH 600 0
DWIDTH 16 0
BBX 12 10 2 8
BITMAP
0E00
0F00
1F00
1B80
3980
31C0
70C0
70E0
E0E0
E070
ENDCHAR
STARTCHAR underscore
ENCODING 95
SWIDTH 500 0
DWIDTH 13 0
BBX 13 1 0 -3
BITMAP
FFF8
ENDCHAR
STARTCHAR grave
ENCODING 96
SWIDTH 278 0
DWIDTH 7 0
BBX 7 4 0 14
BITMAP
E0
FC
7E
06
ENDCHAR
STARTCHAR a
ENCODING 97
SWIDTH 556 0
DWIDTH 14 0
BBX 11 14 1 0
BITMAP
7F80
7FC0
7FE0
00E0
00E0
1FE0
7FE0
F8E0
E0E0
E0E0
E0E0
FFE0
7FE0
3E60
ENDCHAR
STARTCHAR b
ENCODING 98
SWIDTH 556 0
DWIDTH 14 0
BBX 12 18 2 0
BITMAP
C000
E000
E000
E000
FC00
FF00
FFC0
E7C0
E1E0
E0E0
E0F0
E0F0
E0F0
E0F0
E1E0
FFE0
FFC0
FF00
ENDCHAR
STARTCHAR c
ENCODING 99
SWIDTH 500 0
DWIDTH 13 0
BBX 12 14 1 0
BITMAP
1FE0
3FF0
7FE0
F000
F000
E000
E000
E000
F000
7800
7C00
3FF0
1FF0
07E0
ENDCHAR
STARTCHAR d
ENCODING 100
SWIDTH 556 0
DWIDTH 14 0
BBX 12 18 1 0
BITMAP
0070
0070
0070
0070
07F0
1FF0
3FF0
7C70
F870
F070
E070
E070
E070
E070
F070
7FF0
3FF0
1FF0
ENDCHAR
STARTCHAR e
ENCODING 101
SWIDTH 556 0
DWIDTH 14 0
BBX 13 14 1 0
BITMAP
0F80
3FE0
7FE0
78F0
F070
F070
FFF8
FFF0
E000
F000
F800
7FF0
3FF0
0FF0
ENDCHAR
STARTCHAR f
ENCODING 102
SWIDTH 333 0
DWIDTH 9 0
BBX 9 18 0 0
BITMAP
0F80
1F80
3F80
3800
FF80
FF80
FF80
3800
3800
3800
3800
3800
3800
3800
3800
3800
3800
1800
ENDCHAR
STARTCHAR g
ENCODING 103
SWIDTH 556 0
DWIDTH 14 0
BBX 13 19 1 -5
BITMAP
07F0
1FF8
3FF0
78E0
F0E0
E0E0
E0E0
E0E0
E0E0
E0E0
F0E0
7FE0
3FF8
1FF8
0038
0078
FFF8
FFF0
3F80
ENDCHAR
STARTCHAR h
ENCODING 104
SWIDTH 556 0
DWIDTH 14 0
BBX 11 18 2 0
BITMAP
C000
E000
E000
E000
EF00
FFC0
FFC0
F1E0
E0E0
E0E0
E0E0
E0E0
E0E0
E0E0
E0E0
E0E0
E0E0
C0C0
ENDCHAR
STARTCHAR i
ENCODING 105
SWIDTH 278 0
DWIDTH 7 0
BBX 3 18 2 0
BITMAP
E0
E0
E0
60
E0
E0
E0
E0
E0
E0
E0
E0
E0
E0
E0
E0
E0
E0
ENDCHAR
STARTCHAR j
ENCODING 106
SWIDTH 222 0
DWIDTH 6 0
BBX 9 23 -4 -5
BITMAP
0300
0780
0780
0300
0300
0700
0700
0700
0700
0700
0700
0700
0700
0700
0700
0700
0700
0700
0700
0700
FF00
FE00
7C00
ENDCHAR
STARTCHAR k
ENCODING 107
SWIDTH 500 0
DWIDTH 13 0
BBX 11 18 2 0
BITMAP
C000
E000
E000
E000
E180
E1C0
E3C0
E780
FF00
FC00
FF00
E780
E3C0
E1C0
E1E0
E0E0
E0E0
C0C0
ENDCHAR
STARTCHAR l
ENCODING 108
SWIDTH 278 0
DWIDTH 7 0
BBX 3 18 2 0
BITMAP
E0
E0
E0
E0
E0
E0
E0
E0
E0
E0
E0
E0
E0
E0
E0
E0
E0
E0
ENDCHAR
STARTCHAR m
ENCODING 109
SWIDTH 833 0
DWIDTH 22 0
BBX 18 14 2 0
BITMAP
CF1F00
FFBF80
FFFFC0
F1E3C0
E1E1C0
E1C1C0
E1C1C0
E1C1C0
E1C1C0
E1C1C0
E1C1C0
E1C1C0
E1C1C0
C0C1C0
ENDCHAR
STARTCHAR n
ENCODING 110
SWIDTH 556 0
DWIDTH 14 0
BBX 11 14 2 0
BITMAP
CF00
FFC0
FFC0
F1E0
E0E0
E0E0
E0E0
E0E0
E0E0
E0E0
E0E0
E0E0
E0E0
C0C0
ENDCHAR
STARTCHAR o
ENCODING 111
SWIDTH 556 0
DWIDTH 14 0
BBX 13 14 1 0
BITMAP
0F80
3FC0
7FE0
70F0
F070
E070
E078
E078
E070
F070
70F0
7FE0
3FC0
0F80
ENDCHAR
STARTCHAR p
ENCODING 112
SWIDTH 556 0
DWIDTH 14 0
BBX 12 19 2 -5
BITMAP
FC00
FF00
FFC0
E3C0
E1E0
E0E0
E0F0
E0F0
E0F0
E0F0
E1E0
FFE0
FFC0
FF00
E000
E000
E000
E000
C000
ENDCHAR
STARTCHAR q
ENCODING 113
SWIDTH 556 0
DWIDTH 14 0
BBX 12 19 1 -5
BITMAP
07E0
1FF0
3FF0
7C70
F070
F070
E070
E070
E070
E070
F070
7FF0
3FF0
1FF0
0070
0070
0070
0070
0060
ENDCHAR
STARTCHAR r
ENCODING 114
SWIDTH 333 0
DWIDTH 9 0
BBX 7 14 2 0
BITMAP
CE
FE
FE
F0
E0
E0
E0
E0
E0
E0
E0
E0
E0
C0
ENDCHAR
STARTCHAR s
ENCODING 115
SWIDTH 500 0
DWIDTH 13 0
BBX 11 14 1 0
BITMAP
3FC0
FFC0
FFC0
E000
F000
FF80
7FC0
1FE0
00E0
00E0
00E0
FFE0
FFC0
FF80
ENDCHAR
STARTCHAR t
ENCODING 116
SWIDTH 389 0
DWIDTH 10 0
BBX 10 18 0 0
BITMAP
1800
1C00
1C00
1C00
FF80
FFC0
7F80
1C00
1C00
1C00
1C00
1C00
1C00
1C00
1C00
1FC0
1FC0
0FC0
ENDCHAR
STARTCHAR u
ENCODING 117
SWIDTH 556 0
DWIDTH 14 0
BBX 11 14 2 0
BITMAP
C0C0
E0E0
E0E0
E0E0
E0E0
E0E0
E0E0
E0E0
E0E0
E1E0
E1E0
FFE0
7FE0
3EC0
ENDCHAR
STARTCHAR v
ENCODING 118
SWIDTH 500 0
DWIDTH 13 0
BBX 11 14 1 0
BITMAP
C060
E0E0
E0E0
E0E0
E0E0
F1E0
71C0
71C0
71C0
3B80
3B80
1F00
1F00
0E00
ENDCHAR
STARTCHAR w
ENCODING 119
SWIDTH 722 0
DWIDTH 19 0
BBX 17 14 1 0
BITMAP
E1C300
E1C380
E1C380
E1C380
E3C380
E3C700
63E700
73E700
776700
777E00
3F7E00
3E7E00
1E3C00
1C1800
ENDCHAR
STARTCHAR x
ENCODING 120
SWIDTH 500 0
DWIDTH 13 0
BBX 11 14 1 0
BITMAP
60C0
E0E0
F1E0
71C0
7BC0
3F80
1F00
3F80
7BC0
F1E0
E0E0
E0E0
E0E0
C060
ENDCHAR
STARTCHAR y
ENCODING 121
SWIDTH 500 0
DWIDTH 13 0
BBX 12 19 1 -5
BITMAP
E060
E070
E0F0
E0E0
E0E0
F0E0
71C0
71C0
79C0
3B80
3F80
1F00
0F00
0E00
1E00
1C00
3800
7800
3000
ENDCHAR
STARTCHAR z
ENCODING 122
SWIDTH 444 0
DWIDTH 12 0
BBX 11 14 0 0
BITMAP
7FC0
7FE0
3FE0
01E0
03C0
0780
0F00
1E00
3C00
7800
7000
FFE0
FFE0
7FE0
ENDCHAR
STARTCHAR braceleft
ENCODING 123
SWIDTH 389 0
DWIDTH 10 0
BBX 8 23 1 -5
BITMAP
0F
1F
1C
1C
1C
1C
1C
1C
1C
3C
38
F0
F0
38
3C
1C
1C
1C
1C
1C
1C
1F
0F
ENDCHAR
STARTCHAR bar
ENCODING 124
SWIDTH 222 0
DWIDTH 6 0
BBX 2 26 2 -6
BITMAP
C0
C0
C0
C0
C0
C0
C0
C0
C0
C0
C0
C0
C0
C0
C0
C0
C0
C0
C0
C0
C0
C0
C0
C0
C0
C0
ENDCHAR
STARTCHAR braceright
ENCODING 125
SWIDTH 389 0
DWIDTH 10 0
BBX 8 23 1 -5
BITMAP
F0
F8
38
3C
3C
3C
3C
3C
3C
3C
1E
0F
0F
1C
3C
3C
3C
3C
3C
3C
38
F8
F0
ENDCHAR
STARTCHAR asciitilde
ENCODING 126
SWIDTH 600 0
DWIDTH 16 0
BBX 12 4 2 4
BITMAP
7E20
FFF0
C7E0
0080
ENDCHAR
STARTCHAR uni00A0
ENCODING 160
SWIDTH 305 0
DWIDTH 8 0
BBX 1 1 0 0
BITMAP
00
ENDCHAR
STARTCHAR exclamdown
ENCODING 161
SWIDTH 333 0
DWIDTH 9 0
BBX 4 18 2 -5
BITMAP
70
F0
F0
70
00
20
70
70
70
70
70
70
70
70
70
70
70
70
ENDCHAR
STARTCHAR cent
ENCODING 162
SWIDTH 611 0
DWIDTH 16 0
BBX 12 19 1 -1
BITMAP
0300
0380
0380
0FE0
3FF0
7FF0
F380
F380
E380
E380
F380
7B80
3FF0
1FF0
07F0
0380
0380
0380
0300
ENDCHAR
STARTCHAR sterling
ENCODING 163
SWIDTH 611 0
DWIDTH 16 0
BBX 16 18 0 0
BITMAP
00FC
01FF
03FF
0784
0780
0700
0700
3FFC
7FFC
3FFC
0700
0700
0700
0700
0F00
7FFE
FFFE
FBFC
ENDCHAR
STARTCHAR currency
ENCODING 164
SWIDTH 611 0
DWIDTH 16 0
BBX 14 14 1 2
BITMAP
4308
FFFC
7FF8
7870
7038
7038
E038
E038
7038
7038
7870
7FF8
FFFC
4308
ENDCHAR
STARTCHAR yen
ENCODING 165
SWIDTH 611 0
DWIDTH 16 0
BBX 14 18 1 0
BITMAP
6018
F03C
F03C
7078
7878
7CF8
FFF8
7FF8
0F80
7FF0
7FF8
7FF8
0780
0780
0780
0780
0780
0300
ENDCHAR
STARTCHAR brokenbar
ENCODING 166
SWIDTH 222 0
DWIDTH 6 0
BBX 2 22 2 -4
BITMAP
C0
C0
C0
C0
C0
C0
C0
C0
C0
00
00
00
00
C0
C0
C0
C0
C0
C0
C0
C0
C0
ENDCHAR
STARTCHAR section
ENCODING 167
SWIDTH 500 0
DWIDTH 13 0
BBX 11 18 1 0
BITMAP
3FC0
7FC0
7F80
7000
7800
7F00
FFC0
E7E0
E1E0
F8E0
7FE0
1FE0
07C0
01E0
01E0
7FC0
FFC0
FF80
ENDCHAR
STARTCHAR dieresis
ENCODING 168
SWIDTH 278 0
DWIDTH 7 0
BBX 9 3 -1 15
BITMAP
E380
E380
6380
ENDCHAR
STARTCHAR copyright
ENCODING 169
SWIDTH 800 0
DWIDTH 21 0
BBX 19 18 1 0
BITMAP
03F000
0FFC00
1E0F00
380780
71F380
73F9C0
E71CC0
E60CE0
E600E0
E600E0
E60CE0
E71CC0
63F9C0
71F1C0
380380
1E0F00
0FFE00
03F000
ENDCHAR
STARTCHAR ordfeminine
ENCODING 170
SWIDTH 334 0
DWIDTH 9 0
BBX 8 8 0 10
BITMAP
7E
7F
07
7F
63
E3
7F
3F
ENDCHAR
STARTCHAR guillemotleft
ENCODING 171
SWIDTH 500 0
DWIDTH 13 0
BBX 10 10 2 2
BITMAP
3180
79C0
7380
F780
E700
E700
F780
7380
73C0
31C0
ENDCHAR
STARTCHAR logicalnot
ENCODING 172
SWIDTH 600 0
DWIDTH 16 0
BBX 13 8 1 3
BITMAP
FFF8
FFF8
FFF8
0018
0018
0018
0018
0018
ENDCHAR
STARTCHAR uni00AD
ENCODING 173
SWIDTH 333 0
DWIDTH 9 0
BBX 7 3 1 5
BITMAP
FC
FE
7C
ENDCHAR
STARTCHAR registered
ENCODING 174
SWIDTH 800 0
DWIDTH 21 0
BBX 19 18 1 0
BITMAP
03F000
0FFE00
1E0F00
380380
73F1C0
63F9C0
E31CC0
E318E0
E3F8E0
E3E0E0
E360E0
E330C0
6319C0
7319C0
380380
1E0F00
0FFE00
03F000
ENDCHAR
STARTCHAR macron
ENCODING 175
SWIDTH 278 0
DWIDTH 7 0
BBX 7 2 0 16
BITMAP
FE
FE
ENDCHAR
STARTCHAR degree
ENCODING 176
SWIDTH 400 0
DWIDTH 10 0
BBX 8 8 1 10
BITMAP
3C
7E
43
C3
43
66
3E
18
ENDCHAR
STARTCHAR plusminus
ENCODING 177
SWIDTH 600 0
DWIDTH 16 0
BBX 13 14 1 0
BITMAP
0700
0700
0700
0700
FFF8
FFF8
FFF8
0700
0700
0700
0000
FFF8
FFF8
FFF8
ENDCHAR
STARTCHAR twosuperior
ENCODING 178
SWIDTH 366 0
DWIDTH 10 0
BBX 9 11 0 7
BITMAP
7E00
7F80
0380
0380
0700
1E00
3C00
7000
E000
FF80
FF80
ENDCHAR
STARTCHAR threesuperior
ENCODING 179
SWIDTH 366 0
DWIDTH 10 0
BBX 9 11 0 7
BITMAP
FF00
FF00
0E00
7E00
7F00
0380
0180
0180
0380
FF80
FE00
ENDCHAR
STARTCHAR acute
ENCODING 180
SWIDTH 278 0
DWIDTH 7 0
BBX 7 4 0 14
BITMAP
0E
3E
FE
40
ENDCHAR
STARTCHAR mu
ENCODING 181
SWIDTH 556 0
DWIDTH 14 0
BBX 11 19 2 -5
BITMAP
C0C0
E0E0
E0E0
E0E0
E0E0
E0E0
E0E0
E0E0
E0E0
E1E0
E1E0
FFE0
FFE0
FEC0
E000
E000
E000
E000
C000
ENDCHAR
STARTCHAR paragraph
ENCODING 182
SWIDTH 620 0
DWIDTH 16 0
BBX 14 18 1 0
BITMAP
1FFC
7FFC
FFFC
FF1C
FF1C
FF1C
FF1C
7F1C
3F1C
031C
031C
031C
031C
031C
031C
031C
031C
031C
ENDCHAR
STARTCHAR periodcentered
ENCODING 183
SWIDTH 305 0
DWIDTH 8 0
BBX 4 4 2 5
BITMAP
60
F0
F0
60
ENDCHAR
STARTCHAR cedilla
ENCODING 184
SWIDTH 278 0
DWIDTH 7 0
BBX 7 6 0 -5
BITMAP
10
10
3C
0E
86
7C
ENDCHAR
STARTCHAR onesuperior
ENCODING 185
SWIDTH 366 0
DWIDTH 10 0
BBX 8 11 1 7
BITMAP
38
F8
F8
38
38
38
38
38
38
FF
FF
ENDCHAR
STARTCHAR ordmasculine
ENCODING 186
SWIDTH 334 0
DWIDTH 9 0
BBX 8 8 0 10
BITMAP
3C
7F
E3
C3
C3
E3
7F
3C
ENDCHAR
STARTCHAR guillemotright
ENCODING 187
SWIDTH 500 0
DWIDTH 13 0
BBX 10 10 1 2
BITMAP
6300
E780
7380
7BC0
39C0
39C0
7BC0
7380
F380
E700
ENDCHAR
STARTCHAR onequarter
ENCODING 188
SWIDTH 916 0
DWIDTH 24 0
BBX 22 18 1 0
BITMAP
3801C0
F801C0
F803C0
380780
380700
380F00
381E00
381C20
3838F0
FF79F0
FF73B0
00E730
01E630
01CE30
038FFC
078FFC
070030
060030
ENDCHAR
STARTCHAR onehalf
ENCODING 189
SWIDTH 916 0
DWIDTH 24 0
BBX 22 18 1 0
BITMAP
380180
F80380
F80780
380700
380F00
381E00
381C00
383800
387BF8
FF73FC
FEE01C
01E01C
01C078
0381F0
078380
070700
0E07FC
0E07FC
ENDCHAR
STARTCHAR threequarters
ENCODING 190
SWIDTH 916 0
DWIDTH 24 0
BBX 23 18 1 0
BITMAP
FF00C0
FF01C0
0E03C0
7C0380
7F0700
038F00
038E00
019C30
03BCF8
FF39F8
FE73B8
00F338
00E738
01C638
03C7FE
0387FE
070038
070038
ENDCHAR
STARTCHAR questiondown
ENCODING 191
SWIDTH 500 0
DWIDTH 13 0
BBX 12 18 1 -5
BITMAP
0300
0780
0780
0300
0000
0100
0700
0700
0F00
1F00
3E00
7800
F000
F000
F000
FFE0
7FF0
3FE0
ENDCHAR
STARTCHAR Agrave
ENCODING 192
SWIDTH 667 0
DWIDTH 17 0
BBX 16 22 1 0
BITMAP
0E00
0FC0
07E0
0020
0380
07C0
0FE0
0EE0
1EF0
1C70
3C78
3838
3F3C
7FDC
7FFC
F07E
F03E
E01E
E00E
E00F
E00F
E006
ENDCHAR
STARTCHAR Aacute
ENCODING 193
SWIDTH 667 0
DWIDTH 17 0
BBX 16 22 1 0
BITMAP
00E0
07E0
0FC0
0400
0380
07C0
0FE0
0EE0
1EF0
1C70
3C78
3838
3F3C
7FDC
7FFC
F07E
F03E
E01E
E00E
E00F
E00F
E006
ENDCHAR
STARTCHAR Acircumflex
ENCODING 194
SWIDTH 667 0
DWIDTH 17 0
BBX 16 23 1 0
BITMAP
0380
07C0
06E0
0C70
0000
0380
07C0
0FE0
0EE0
1EF0
1C70
3C78
3838
3F3C
7FDC
7FFC
F07E
F03E
E01E
E00E
E00F
E00F
E006
ENDCHAR
STARTCHAR Atilde
ENCODING 195
SWIDTH 667 0
DWIDTH 17 0
BBX 16 22 1 0
BITMAP
0710
0FF0
19E0
0000
0380
07C0
0FE0
0EE0
1EF0
1C70
3C78
3838
3F3C
7FDC
7FFC
F07E
F03E
E01E
E00E
E00F
E00F
E006
ENDCHAR
STARTCHAR Adieresis
ENCODING 196
SWIDTH 667 0
DWIDTH 17 0
BBX 16 22 1 0
BITMAP
0C70
1C70
1C70
0000
0380
07C0
0FE0
0EE0
1EF0
1C70
3C78
3838
3F3C
7FDC
7FFC
F07E
F03E
E01E
E00E
E00F
E00F
E006
ENDCHAR
STARTCHAR Aring
ENCODING 197
SWIDTH 667 0
DWIDTH 17 0
BBX 16 24 1 0
BITMAP
0380
07C0
0440
0640
03C0
0000
0380
07C0
0FE0
0EE0
1EF0
1C70
3C78
3838
3F3C
7FDC
7FFC
F07E
F03E
E01E
E00E
E00F
E00F
E006
ENDCHAR
STARTCHAR AE
ENCODING 198
SWIDTH 889 0
DWIDTH 23 0
BBX 23 18 0 0
BITMAP
007FFC
00FFFE
01FFFC
03DE00
079E00
0F1E00
0E1FF8
1CFFFC
3DFFF8
3FFE00
7F1E00
7C1E00
781E00
F01E00
F01E00
E01FFC
E01FFE
C00FFC
ENDCHAR
STARTCHAR Ccedilla
ENCODING 199
SWIDTH 611 0
DWIDTH 16 0
BBX 14 23 1 -5
BITMAP
0FFC
3FFC
3FFC
7C00
7800
F000
F000
F000
F000
F000
7800
7800
7C00
3E00
1FC0
0FFC
03FC
00FC
0180
01E0
0070
0670
03E0
ENDCHAR
STARTCHAR Egrave
ENCODING 200
SWIDTH 556 0
DWIDTH 14 0
BBX 11 22 2 0
BITMAP
3800
3F00
0F80
0000
FFE0
FFE0
FFE0
E000
E000
FFE0
FFE0
FFE0
E000
E000
E000
E000
E000
E000
E000
FFE0
FFE0
FFE0
ENDCHAR
STARTCHAR Eacute
ENCODING 201
SWIDTH 556 0
DWIDTH 14 0
BBX 11 22 2 0
BITMAP
0780
1F80
3E00
0000
FFE0
FFE0
FFE0
E000
E000
FFE0
FFE0
FFE0
E000
E000
E000
E000
E000
E000
E000
FFE0
FFE0
FFE0
ENDCHAR
STARTCHAR Ecircumflex
ENCODING 202
SWIDTH 556 0
DWIDTH 14 0
BBX 11 23 2 0
BITMAP
0E00
1F00
3B80
7180
0000
FFE0
FFE0
FFE0
E000
E000
FFE0
FFE0
FFE0
E000
E000
E000
E000
E000
E000
E000
FFE0
FFE0
FFE0
ENDCHAR
STARTCHAR Edieresis
ENCODING 203
SWIDTH 556 0
DWIDTH 14 0
BBX 11 22 2 0
BITMAP
71C0
71C0
7180
0000
FFE0
FFE0
FFE0
E000
E000
FFE0
FFE0
FFE0
E000
E000
E000
E000
E000
E000
E000
FFE0
FFE0
FFE0
ENDCHAR
STARTCHAR Igrave
ENCODING 204
SWIDTH 278 0
DWIDTH 7 0
BBX 7 22 0 0
BITMAP
E0
FC
3E
02
38
38
38
38
38
38
38
38
38
38
38
38
38
38
38
38
38
38
ENDCHAR
STARTCHAR Iacute
ENCODING 205
SWIDTH 278 0
DWIDTH 7 0
BBX 7 22 0 0
BITMAP
0E
7E
FC
40
38
38
38
38
38
38
38
38
38
38
38
38
38
38
38
38
38
38
ENDCHAR
STARTCHAR Icircumflex
ENCODING 206
SWIDTH 278 0
DWIDTH 7 0
BBX 8 23 0 0
BITMAP
38
7C
EE
C7
00
38
38
38
38
38
38
38
38
38
38
38
38
38
38
38
38
38
38
ENDCHAR
STARTCHAR Idieresis
ENCODING 207
SWIDTH 278 0
DWIDTH 7 0
BBX 9 22 -1 0
BITMAP
6380
E380
E380
0000
1C00
1C00
1C00
1C00
1C00
1C00
1C00
1C00
1C00
1C00
1C00
1C00
1C00
1C00
1C00
1C00
1C00
1C00
ENDCHAR
STARTCHAR Eth
ENCODING 208
SWIDTH 667 0
DWIDTH 17 0
BBX 16 18 0 0
BITMAP
3F00
3FE0
3FF0
39FC
387C
381E
381F
FF8F
FF8F
FF87
3807
3807
380F
380F
383E
3FFE
3FFC
3FF0
ENDCHAR
STARTCHAR Ntilde
ENCODING 209
SWIDTH 611 0
DWIDTH 16 0
BBX 12 22 2 0
BITMAP
1C40
3FC0
2780
0000
E070
F070
F870
FC70
FF70
EFF0
E7F0
E1F0
E070
E070
E070
E070
E070
E070
E070
E070
E070
E070
ENDCHAR
STARTCHAR Ograve
ENCODING 210
SWIDTH 722 0
DWIDTH 19 0
BBX 17 22 1 0
BITMAP
070000
07E000
03F000
002000
07E000
1FF800
3FFC00
3C3E00
780F00
F00F00
F00780
F00780
F00780
F00780
F00780
F00780
F00F00
780F00
7C3E00
3FFC00
0FF800
03E000
ENDCHAR
STARTCHAR Oacute
ENCODING 211
SWIDTH 722 0
DWIDTH 19 0
BBX 17 22 1 0
BITMAP
007000
03F000
07E000
000000
07E000
1FF800
3FFC00
3C3E00
780F00
F00F00
F00780
F00780
F00780
F00780
F00780
F00780
F00F00
780F00
7C3E00
3FFC00
0FF800
03E000
ENDCHAR
STARTCHAR Ocircumflex
ENCODING 212
SWIDTH 722 0
DWIDTH 19 0
BBX 17 23 1 0
BITMAP
01C000
03E000
077000
0E3000
000000
07E000
1FF800
3FFC00
3C3E00
780F00
F00F00
F00780
F00780
F00780
F00780
F00780
F00780
F00F00
780F00
7C3E00
3FFC00
0FF800
03E000
ENDCHAR
STARTCHAR Otilde
ENCODING 213
SWIDTH 722 0
DWIDTH 19 0
BBX 17 22 1 0
BITMAP
071800
0FF000
08E000
000000
07E000
1FF800
3FFC00
3C3E00
780F00
F00F00
F00780
F00780
F00780
F00780
F00780
F00780
F00F00
780F00
7C3E00
3FFC00
0FF800
03E000
ENDCHAR
STARTCHAR Odieresis
ENCODING 214
SWIDTH 722 0
DWIDTH 19 0
BBX 17 22 1 0
BITMAP
0E3000
0E3800
0E3800
000000
07E000
1FF800
3FFC00
3C3E00
780F00
F00F00
F00780
F00780
F00780
F00780
F00780
F00780
F00F00
780F00
7C3E00
3FFC00
0FF800
03E000
ENDCHAR
STARTCHAR multiply
ENCODING 215
SWIDTH 600 0
DWIDTH 16 0
BBX 12 14 2 0
BITMAP
4020
E070
E0F0
71E0
3BC0
3F80
1F00
1F00
3F80
3BC0
71E0
E0F0
E070
4020
ENDCHAR
STARTCHAR Oslash
ENCODING 216
SWIDTH 722 0
DWIDTH 19 0
BBX 17 22 1 -2
BITMAP
000C00
001C00
07FC00
1FF800
3FFC00
3C7E00
787F00
F0EF00
F0E780
F1E780
F1C780
F3C780
F38780
F78780
F70F00
7F0F00
7E3E00
3FFC00
1FF800
3FE000
380000
380000
ENDCHAR
STARTCHAR Ugrave
ENCODING 217
SWIDTH 611 0
DWIDTH 16 0
BBX 13 22 1 0
BITMAP
1E00
1FC0
07C0
0040
3030
7038
7038
7038
7038
7038
7038
7038
7038
F038
E038
E038
F038
F038
7878
7FF0
3FE0
0FC0
ENDCHAR
STARTCHAR Uacute
ENCODING 218
SWIDTH 611 0
DWIDTH 16 0
BBX 13 22 1 0
BITMAP
01C0
0FE0
1F80
0800
3030
7038
7038
7038
7038
7038
7038
7038
7038
F038
E038
E038
F038
F038
7878
7FF0
3FE0
0FC0
ENDCHAR
STARTCHAR Ucircumflex
ENCODING 219
SWIDTH 611 0
DWIDTH 16 0
BBX 13 23 1 0
BITMAP
0300
0780
0CC0
1CE0
0000
3030
7038
7038
7038
7038
7038
7038
7038
7038
F038
E038
E038
F038
F038
7878
7FF0
3FE0
0FC0
ENDCHAR
STARTCHAR Udieresis
ENCODING 220
SWIDTH 611 0
DWIDTH 16 0
BBX 13 22 1 0
BITMAP
1860
3CE0
1860
0000
3030
7038
7038
7038
7038
7038
7038
7038
7038
F038
E038
E038
F038
F038
7878
7FF0
3FE0
0FC0
ENDCHAR
STARTCHAR Yacute
ENCODING 221
SWIDTH 556 0
DWIDTH 14 0
BBX 14 22 0 0
BITMAP
00E0
07E0
0FC0
0400
601C
F01C
703C
783C
7878
3C78
1EF0
1FE0
0FC0
0780
0780
0780
0780
0780
0780
0780
0780
0380
ENDCHAR
STARTCHAR Thorn
ENCODING 222
SWIDTH 556 0
DWIDTH 14 0
BBX 12 18 2 0
BITMAP
E000
E000
E000
FFC0
FFF0
FFF0
E070
E070
E0F0
E1F0
EFE0
FF80
FE00
F000
E000
E000
E000
E000
ENDCHAR
STARTCHAR germandbls
ENCODING 223
SWIDTH 556 0
DWIDTH 14 0
BBX 14 18 0 0
BITMAP
1FC0
3FE0
3FE0
38E0
38E0
F9E0
FBC0
FF00
3F80
3FE0
39F8
3878
381C
381C
383C
3FF8
3FF8
3FE0
ENDCHAR
STARTCHAR agrave
ENCODING 224
SWIDTH 556 0
DWIDTH 14 0
BBX 11 19 1 0
BITMAP
1800
3F00
0FC0
0080
0000
7F80
7FC0
7FE0
00E0
00E0
1FE0
7FE0
F8E0
E0E0
E0E0
E0E0
FFE0
7FE0
3E60
ENDCHAR
STARTCHAR aacute
ENCODING 225
SWIDTH 556 0
DWIDTH 14 0
BBX 11 19 1 0
BITMAP
01C0
0FC0
1F80
1000
0000
7F80
7FC0
7FE0
00E0
00E0
1FE0
7FE0
F8E0
E0E0
E0E0
E0E0
FFE0
7FE0
3E60
ENDCHAR
STARTCHAR acircumflex
ENCODING 226
SWIDTH 556 0
DWIDTH 14 0
BBX 11 18 1 0
BITMAP
0F00
1980
10C0
0000
7F80
7FC0
7FE0
00E0
00E0
1FE0
7FE0
F8E0
E0E0
E0E0
E0E0
FFE0
7FE0
3E60
ENDCHAR
STARTCHAR atilde
ENCODING 227
SWIDTH 556 0
DWIDTH 14 0
BBX 11 18 1 0
BITMAP
1C40
3FC0
2380
0000
7F80
7FC0
7FE0
00E0
00E0
1FE0
7FE0
F8E0
E0E0
E0E0
E0E0
FFE0
7FE0
3E60
ENDCHAR
STARTCHAR adieresis
ENCODING 228
SWIDTH 556 0
DWIDTH 14 0
BBX 11 19 1 0
BITMAP
30C0
39E0
30C0
0000
0000
7F80
7FC0
7FE0
00E0
00E0
1FE0
7FE0
F8E0
E0E0
E0E0
E0E0
FFE0
7FE0
3E60
ENDCHAR
STARTCHAR aring
ENCODING 229
SWIDTH 556 0
DWIDTH 14 0
BBX 11 21 1 0
BITMAP
0F00
0F80
1980
1980
0F00
0000
0000
7F80
7FC0
7FE0
00E0
00E0
1FE0
7FE0
F8E0
E0E0
E0E0
E0E0
FFE0
7FE0
3E60
ENDCHAR
STARTCHAR ae
ENCODING 230
SWIDTH 778 0
DWIDTH 20 0
BBX 20 14 0 0
BITMAP
7F8F80
7FFFC0
3FFFE0
00F0E0
00F070
1FFFF0
7FFFF0
78E000
F0E000
E0F000
F0F800
7FFFE0
7FFFF0
3F8FF0
ENDCHAR
STARTCHAR ccedilla
ENCODING 231
SWIDTH 500 0
DWIDTH 13 0
BBX 12 19 1 -5
BITMAP
1FE0
3FF0
7FE0
F000
F000
E000
E000
E000
F000
7800
7C00
3FF0
1FF0
07E0
0200
0780
00C0
19C0
0F80
ENDCHAR
STARTCHAR egrave
ENCODING 232
SWIDTH 556 0
DWIDTH 14 0
BBX 13 19 1 0
BITMAP
1800
1F00
1FC0
01C0
0000
0F80
3FE0
7FE0
78F0
F070
F070
FFF8
FFF0
E000
F000
F800
7FF0
3FF0
0FF0
ENDCHAR
STARTCHAR eacute
ENCODING 233
SWIDTH 556 0
DWIDTH 14 0
BBX 13 19 1 0
BITMAP
01C0
07C0
1F80
1800
0000
0F80
3FE0
7FE0
78F0
F070
F070
FFF8
FFF0
E000
F000
F800
7FF0
3FF0
0FF0
ENDCHAR
STARTCHAR ecircumflex
ENCODING 234
SWIDTH 556 0
DWIDTH 14 0
BBX 13 18 1 0
BITMAP
0700
1DC0
38C0
0000
0F80
3FE0
7FE0
78F0
F070
F070
FFF8
FFF0
E000
F000
F800
7FF0
3FF0
0FF0
ENDCHAR
STARTCHAR edieresis
ENCODING 235
SWIDTH 556 0
DWIDTH 14 0
BBX 13 19 1 0
BITMAP
38C0
38E0
38E0
0000
0000
0F80
3FE0
7FE0
78F0
F070
F070
FFF8
FFF0
E000
F000
F800
7FF0
3FF0
0FF0
ENDCHAR
STARTCHAR igrave
ENCODING 236
SWIDTH 278 0
DWIDTH 7 0
BBX 7 19 0 0
BITMAP
E0
F8
FE
06
00
38
38
38
38
38
38
38
38
38
38
38
38
38
38
ENDCHAR
STARTCHAR iacute
ENCODING 237
SWIDTH 278 0
DWIDTH 7 0
BBX 7 19 0 0
BITMAP
06
3E
FE
E0
00
38
38
38
38
38
38
38
38
38
38
38
38
38
38
ENDCHAR
STARTCHAR icircumflex
ENCODING 238
SWIDTH 278 0
DWIDTH 7 0
BBX 8 18 0 0
BITMAP
38
EE
C7
00
38
38
38
38
38
38
38
38
38
38
38
38
38
38
ENDCHAR
STARTCHAR idieresis
ENCODING 239
SWIDTH 278 0
DWIDTH 7 0
BBX 9 19 -1 0
BITMAP
6380
E380
E380
0000
0000
1C00
1C00
1C00
1C00
1C00
1C00
1C00
1C00
1C00
1C00
1C00
1C00
1C00
1C00
ENDCHAR
STARTCHAR eth
ENCODING 240
SWIDTH 556 0
DWIDTH 14 0
BBX 12 18 1 0
BITMAP
39C0
7FC0
1F80
1FC0
19E0
00E0
1FF0
3FF0
7FF0
F0F0
F070
E070
E070
F070
70F0
7FE0
3FC0
0F80
ENDCHAR
STARTCHAR ntilde
ENCODING 241
SWIDTH 556 0
DWIDTH 14 0
BBX 11 18 2 0
BITMAP
38C0
7F80
4700
0000
CF00
FFC0
FFC0
F1E0
E0E0
E0E0
E0E0
E0E0
E0E0
E0E0
E0E0
E0E0
E0E0
C0C0
ENDCHAR
STARTCHAR ograve
ENCODING 242
SWIDTH 556 0
DWIDTH 14 0
BBX 13 19 1 0
BITMAP
1800
1F00
1FC0
0180
0000
0F80
3FC0
7FE0
70F0
F070
E070
E078
E078
E070
F070
70F0
7FE0
3FC0
0F80
ENDCHAR
STARTCHAR oacute
ENCODING 243
SWIDTH 556 0
DWIDTH 14 0
BBX 13 19 1 0
BITMAP
01C0
0FC0
1F80
1800
0000
0F80
3FC0
7FE0
70F0
F070
E070
E078
E078
E070
F070
70F0
7FE0
3FC0
0F80
ENDCHAR
STARTCHAR ocircumflex
ENCODING 244
SWIDTH 556 0
DWIDTH 14 0
BBX 13 18 1 0
BITMAP
0700
1980
38C0
0000
0F80
3FC0
7FE0
70F0
F070
E070
E078
E078
E070
F070
70F0
7FE0
3FC0
0F80
ENDCHAR
STARTCHAR otilde
ENCODING 245
SWIDTH 556 0
DWIDTH 14 0
BBX 13 18 1 0
BITMAP
1C60
3FC0
2380
0000
0F80
3FC0
7FE0
70F0
F070
E070
E078
E078
E070
F070
70F0
7FE0
3FC0
0F80
ENDCHAR
STARTCHAR odieresis
ENCODING 246
SWIDTH 556 0
DWIDTH 14 0
BBX 13 19 1 0
BITMAP
30C0
38E0
38C0
0000
0000
0F80
3FC0
7FE0
70F0
F070
E070
E078
E078
E070
F070
70F0
7FE0
3FC0
0F80
ENDCHAR
STARTCHAR divide
ENCODING 247
SWIDTH 600 0
DWIDTH 16 0
BBX 13 15 1 -1
BITMAP
0700
0780
0780
0780
0000
0000
FFF8
FFF8
FFF8
0000
0000
0780
0780
0780
0700
ENDCHAR
STARTCHAR oslash
ENCODING 248
SWIDTH 556 0
DWIDTH 14 0
BBX 13 18 1 -2
BITMAP
0020
0060
0FE0
3FC0
7FE0
71F0
F3F0
E370
E778
E678
EE70
FC70
F8F0
7FE0
3FC0
7F80
6000
6000
ENDCHAR
STARTCHAR ugrave
ENCODING 249
SWIDTH 556 0
DWIDTH 14 0
BBX 11 19 2 0
BITMAP
3000
3E00
3F80
0300
0000
C0C0
E0E0
E0E0
E0E0
E0E0
E0E0
E0E0
E0E0
E0E0
E1E0
E1E0
FFE0
7FE0
3EC0
ENDCHAR
STARTCHAR uacute
ENCODING 250
SWIDTH 556 0
DWIDTH 14 0
BBX 11 19 2 0
BITMAP
0380
1F80
3F00
3000
0000
C0C0
E0E0
E0E0
E0E0
E0E0
E0E0
E0E0
E0E0
E0E0
E1E0
E1E0
FFE0
7FE0
3EC0
ENDCHAR
STARTCHAR ucircumflex
ENCODING 251
SWIDTH 556 0
DWIDTH 14 0
BBX 11 18 2 0
BITMAP
0E00
3300
7180
0000
C0C0
E0E0
E0E0
E0E0
E0E0
E0E0
E0E0
E0E0
E0E0
E1E0
E1E0
FFE0
7FE0
3EC0
ENDCHAR
STARTCHAR udieresis
ENCODING 252
SWIDTH 556 0
DWIDTH 14 0
BBX 11 19 2 0
BITMAP
6180
71C0
7180
0000
0000
C0C0
E0E0
E0E0
E0E0
E0E0
E0E0
E0E0
E0E0
E0E0
E1E0
E1E0
FFE0
7FE0
3EC0
ENDCHAR
STARTCHAR yacute
ENCODING 253
SWIDTH 500 0
DWIDTH 13 0
BBX 12 24 1 -5
BITMAP
0380
0F80
3F80
3000
0000
E060
E070
E0F0
E0E0
E0E0
F0E0
71C0
71C0
79C0
3B80
3F80
1F00
0F00
0E00
1E00
1C00
3800
7800
3000
ENDCHAR
STARTCHAR thorn
ENCODING 254
SWIDTH 556 0
DWIDTH 14 0
BBX 12 23 2 -5
BITMAP
C000
E000
E000
E000
FC00
FF00
FFC0
E3C0
E1E0
E0E0
E0F0
E0F0
E0F0
E0F0
E1E0
FFE0
FFC0
FF00
E000
E000
E000
E000
C000
ENDCHAR
STARTCHAR ydieresis
ENCODING 255
SWIDTH 500 0
DWIDTH 13 0
BBX 12 24 1 -5
BITMAP
71C0
71C0
71C0
0000
0000
E060
E070
E0F0
E0E0
E0E0
F0E0
71C0
71C0
79C0
3B80
3F80
1F00
0F00
0E00
1E00
1C00
3800
7800
3000
ENDCHAR
STARTCHAR .notdef
ENCODING -1
SWIDTH 500 0
DWIDTH 13 0
BBX 13 18 0 0
BITMAP
FFF8
C018
E028
B068
9048
9888
8D88
8508
8708
8708
8508
8D88
98C8
9048
B068
E038
C018
FFF8
ENDCHAR
STARTCHAR quoteright
ENCODING -1
SWIDTH 222 0
DWIDTH 6 0
BBX 4 7 1 11
BITMAP
30
70
70
F0
E0
E0
C0
ENDCHAR
STARTCHAR quoteleft
ENCODING -1
SWIDTH 222 0
DWIDTH 6 0
BBX 5 7 0 11
BITMAP
60
F0
70
70
38
38
18
ENDCHAR
STARTCHAR fraction
ENCODING -1
SWIDTH 167 0
DWIDTH 4 0
BBX 13 18 -4 0
BITMAP
0030
0038
0070
00F0
01E0
01C0
03C0
0780
0700
0F00
1E00
1C00
3C00
7800
7000
E000
E000
C000
ENDCHAR
STARTCHAR florin
ENCODING -1
SWIDTH 611 0
DWIDTH 16 0
BBX 16 23 0 -5
BITMAP
003E
007F
00FF
00F0
01E0
01E0
01C0
1FFC
1FFC
0FF8
03C0
03C0
0380
0380
0380
0780
0780
0780
0700
1F00
FF00
FE00
F800
ENDCHAR
STARTCHAR quotedblleft
ENCODING -1
SWIDTH 389 0
DWIDTH 10 0
BBX 10 7 0 11
BITMAP
6700
E700
F780
7380
7B80
39C0
39C0
ENDCHAR
STARTCHAR guilsinglleft
ENCODING -1
SWIDTH 333 0
DWIDTH 9 0
BBX 5 10 2 2
BITMAP
18
38
78
70
F0
F0
70
78
38
38
ENDCHAR
STARTCHAR guilsinglright
ENCODING -1
SWIDTH 333 0
DWIDTH 9 0
BBX 5 10 2 2
BITMAP
C0
E0
E0
F0
70
78
70
E0
E0
C0
ENDCHAR
STARTCHAR fi
ENCODING -1
SWIDTH 611 0
DWIDTH 16 0
BBX 14 18 0 0
BITMAP
0FF8
1FFC
3FFC
3818
FFF8
FFFC
FFFC
381C
381C
381C
381C
381C
381C
381C
381C
381C
381C
1818
ENDCHAR
STARTCHAR fl
ENCODING -1
SWIDTH 611 0
DWIDTH 16 0
BBX 14 18 0 0
BITMAP
0FF8
1FFC
3FFC
381C
FF9C
FF9C
FF9C
381C
381C
381C
381C
381C
381C
381C
381C
381C
381C
1818
ENDCHAR
STARTCHAR endash
ENCODING -1
SWIDTH 500 0
DWIDTH 13 0
BBX 13 2 0 6
BITMAP
FFF8
FFF8
ENDCHAR
STARTCHAR dagger
ENCODING -1
SWIDTH 444 0
DWIDTH 12 0
BBX 9 18 1 0
BITMAP
0C00
1C00
1C00
1C00
7F80
FF80
7F00
1C00
1C00
1C00
1C00
1C00
1C00
1C00
1C00
1C00
1C00
0C00
ENDCHAR
STARTCHAR daggerdbl
ENCODING -1
SWIDTH 444 0
DWIDTH 12 0
BBX 9 18 1 0
BITMAP
0C00
1C00
1C00
1C00
7F80
FF80
7F00
1C00
1C00
1C00
1C00
7F00
FF80
7F80
1C00
1C00
1C00
0C00
ENDCHAR
STARTCHAR bullet
ENCODING -1
SWIDTH 500 0
DWIDTH 13 0
BBX 9 9 2 4
BITMAP
3C00
7F00
FF00
FF80
FF80
FF80
FF00
7F00
3E00
ENDCHAR
STARTCHAR quotesinglbase
ENCODING -1
SWIDTH 222 0
DWIDTH 6 0
BBX 4 7 1 -3
BITMAP
70
70
70
E0
E0
E0
C0
ENDCHAR
STARTCHAR quotedblbase
ENCODING -1
SWIDTH 389 0
DWIDTH 10 0
BBX 10 7 0 -3
BITMAP
39C0
39C0
7B80
7380
7780
E700
6700
ENDCHAR
STARTCHAR quotedblright
ENCODING -1
SWIDTH 389 0
DWIDTH 10 0
BBX 10 7 0 11
BITMAP
39C0
39C0
7BC0
7380
7380
E700
E700
ENDCHAR
STARTCHAR ellipsis
ENCODING -1
SWIDTH 1000 0
DWIDTH 26 0
BBX 20 4 3 0
BITMAP
C06030
E0F070
E0F070
E06070
ENDCHAR
STARTCHAR perthousand
ENCODING -1
SWIDTH 1000 0
DWIDTH 26 0
BBX 26 18 0 0
BITMAP
3C0C0000
7E0C0000
FF1C0000
E7380000
E7380000
E7700000
E7600000
7FE00000
7ECC0600
19FF1F80
03BFBF80
03F3B9C0
0771B9C0
0671B9C0
0E73B9C0
0C3FBF80
1C3F1F80
181E0F00
ENDCHAR
STARTCHAR circumflex
ENCODING -1
SWIDTH 278 0
DWIDTH 7 0
BBX 8 4 0 14
BITMAP
38
7C
EE
C7
ENDCHAR
STARTCHAR tilde
ENCODING -1
SWIDTH 278 0
DWIDTH 7 0
BBX 9 3 -1 15
BITMAP
3080
7F80
CF00
ENDCHAR
STARTCHAR breve
ENCODING -1
SWIDTH 278 0
DWIDTH 7 0
BBX 8 4 0 14
BITMAP
81
C6
FE
7C
ENDCHAR
STARTCHAR dotaccent
ENCODING -1
SWIDTH 278 0
DWIDTH 7 0
BBX 3 3 2 15
BITMAP
E0
E0
E0
ENDCHAR
STARTCHAR ring
ENCODING -1
SWIDTH 278 0
DWIDTH 7 0
BBX 5 5 1 15
BITMAP
70
F8
88
C8
F8
ENDCHAR
STARTCHAR hungarumlaut
ENCODING -1
SWIDTH 278 0
DWIDTH 7 0
BBX 10 6 -1 14
BITMAP
3080
39C0
7380
E700
CE00
8C00
ENDCHAR
STARTCHAR ogonek
ENCODING -1
SWIDTH 278 0
DWIDTH 7 0
BBX 6 6 1 -5
BITMAP
1C
60
C0
C0
CC
78
ENDCHAR
STARTCHAR caron
ENCODING -1
SWIDTH 278 0
DWIDTH 7 0
BBX 8 4 0 14
BITMAP
C7
EE
7C
38
ENDCHAR
STARTCHAR emdash
ENCODING -1
SWIDTH 1000 0
DWIDTH 26 0
BBX 26 2 0 6
BITMAP
FFFFFFC0
FFFFFFC0
ENDCHAR
STARTCHAR Lslash
ENCODING -1
SWIDTH 444 0
DWIDTH 12 0
BBX 13 18 -1 0
BITMAP
1C00
1C00
1C00
1C00
1C00
1C00
1DC0
1FC0
1F80
7E00
FC00
7C00
1C00
1C00
1C00
1FF8
1FF8
0FF0
ENDCHAR
STARTCHAR OE
ENCODING -1
SWIDTH 1000 0
DWIDTH 26 0
BBX 24 18 1 0
BITMAP
07E7FF
1FFFFF
3FFFFF
7C3F00
781F00
700F00
F00FFF
F00FFF
E007FE
E00700
E00700
F00F00
F00F00
781F00
7C3F00
3FFFFF
1FFFFF
07E7FF
ENDCHAR
STARTCHAR dotlessi
ENCODING -1
SWIDTH 278 0
DWIDTH 7 0
BBX 3 14 2 0
BITMAP
E0
E0
E0
E0
E0
E0
E0
E0
E0
E0
E0
E0
E0
E0
ENDCHAR
STARTCHAR lslash
ENCODING -1
SWIDTH 278 0
DWIDTH 7 0
BBX 9 18 -1 0
BITMAP
1C00
1C00
1C00
1C00
1C00
1C00
1F80
1F00
7C00
FC00
5C00
1C00
1C00
1C00
1C00
1C00
1C00
1C00
ENDCHAR
STARTCHAR oe
ENCODING -1
SWIDTH 833 0
DWIDTH 22 0
BBX 20 14 1 0
BITMAP
1F0F80
3F9FE0
7FFFE0
F1F870
E0F070
E0FFF0
E07FF0
E07000
E0F000
E0F000
F1F800
7FFFF0
3F9FF0
1F0FF0
ENDCHAR
STARTCHAR trademark
ENCODING -1
SWIDTH 1000 0
DWIDTH 26 0
BBX 24 11 1 7
BITMAP
FF9E0F
FF9E1F
1C1F1F
1C1F1F
1C1FBF
1C1DB7
1C1DB7
1C1DF7
1C1CE7
1C1CE7
1C1CE7
ENDCHAR
STARTCHAR minus
ENCODING -1
SWIDTH 600 0
DWIDTH 16 0
BBX 13 3 1 5
BITMAP
FFF8
FFF8
FFF8
ENDCHAR
STARTCHAR Scaron
ENCODING -1
SWIDTH 611 0
DWIDTH 16 0
BBX 14 23 1 0
BITMAP
1C60
0EC0
07C0
0380
0000
3FF0
7FF0
FFF0
F000
E000
F800
7FC0
7FF0
0FF8
00F8
003C
003C
003C
003C
0078
FFF8
FFF0
FFC0
ENDCHAR
STARTCHAR Ydieresis
ENCODING -1
SWIDTH 556 0
DWIDTH 14 0
BBX 14 22 0 0
BITMAP
1C70
1C70
1C70
0000
601C
F01C
703C
783C
7878
3C78
1EF0
1FE0
0FC0
0780
0780
0780
0780
0780
0780
0780
0780
0380
ENDCHAR
STARTCHAR Zcaron
ENCODING -1
SWIDTH 500 0
DWIDTH 13 0
BBX 12 23 1 0
BITMAP
31C0
1B80
1F00
0E00
0000
7FE0
FFE0
7FE0
00E0
01E0
01C0
03C0
0780
0F00
1E00
3C00
7800
F000
F000
E000
FFE0
FFF0
FFE0
ENDCHAR
STARTCHAR scaron
ENCODING -1
SWIDTH 500 0
DWIDTH 13 0
BBX 11 19 1 0
BITMAP
3180
1B00
1E00
0400
0000
3FC0
FFC0
FFC0
E000
F000
FF80
7FC0
1FE0
00E0
00E0
00E0
FFE0
FFC0
FF80
ENDCHAR
STARTCHAR zcaron
ENCODING -1
SWIDTH 444 0
DWIDTH 12 0
BBX 11 19 0 0
BITMAP
3980
1B80
0F00
0600
0000
7FC0
7FE0
3FE0
01E0
03C0
0780
0F00
1E00
3C00
7800
7000
FFE0
FFE0
7FE0
ENDCHAR
STARTCHAR Delta
ENCODING -1
SWIDTH 709 0
DWIDTH 18 0
BBX 17 18 1 0
BITMAP
03C000
03E000
07E000
07F000
077000
0E7000
0E7800
1C3800
1C3C00
3C1C00
381C00
381E00
700E00
700F00
E00700
E00700
FFFF80
FFFF80
ENDCHAR
STARTCHAR Omega
ENCODING -1
SWIDTH 786 0
DWIDTH 20 0
BBX 18 18 1 0
BITMAP
03F000
0FFC00
1FBF00
3C0F00
780780
700380
7003C0
7001C0
7001C0
7001C0
7003C0
700380
300380
380700
1C0600
0E0C00
FF1FC0
FF1FC0
ENDCHAR
STARTCHAR pi
ENCODING -1
SWIDTH 641 0
DWIDTH 17 0
BBX 16 13 0 0
BITMAP
7FFF
FFFF
FFFF
1C1C
1C1C
1C1C
1C1C
1C1C
1C1C
3C1C
381C
381C
381C
ENDCHAR
STARTCHAR Euro
ENCODING -1
SWIDTH 611 0
DWIDTH 16 0
BBX 16 18 0 0
BITMAP
03FE
07FE
0FFE
1F00
1E00
7FF0
FFF0
3FE0
7FE0
FFF0
7FF0
1E00
0F00
0F80
07F0
03FE
00FF
003E
ENDCHAR
STARTCHAR estimated
ENCODING -1
SWIDTH 844 0
DWIDTH 22 0
BBX 20 18 1 0
BITMAP
01F800
0E0600
180180
3000C0
7000E0
7000E0
F000F0
F000F0
F000F0
FFFFF0
F00000
F00000
700000
700000
300000
100180
0C0300
03FC00
ENDCHAR
STARTCHAR partialdiff
ENCODING -1
SWIDTH 610 0
DWIDTH 16 0
BBX 14 20 1 0
BITMAP
1F80
7FC0
7FE0
00F0
0070
0038
0038
0038
1FB8
3FFC
78FC
F038
E038
E038
E038
E070
F0F0
7FE0
3FC0
1F80
ENDCHAR
STARTCHAR product
ENCODING -1
SWIDTH 767 0
DWIDTH 20 0
BBX 18 20 1 -2
BITMAP
FFFFC0
FFFFC0
FFFFC0
1C0E00
1C0E00
1C0E00
1C0E00
1C0E00
1C0E00
1C0E00
1C0E00
1C0E00
1C0E00
1C0E00
1C0E00
1C0E00
1C0E00
1C0E00
1C0E00
1C0E00
ENDCHAR
STARTCHAR summation
ENCODING -1
SWIDTH 602 0
DWIDTH 16 0
BBX 14 21 1 -3
BITMAP
FFFC
FFFC
FFFC
7800
3800
3C00
1E00
0F00
0780
03C0
03C0
0380
0700
0E00
1E00
3C00
3800
7000
FFFC
FFFC
FFFC
ENDCHAR
STARTCHAR uni2219
ENCODING -1
SWIDTH 305 0
DWIDTH 8 0
BBX 4 4 2 5
BITMAP
60
F0
F0
60
ENDCHAR
STARTCHAR radical
ENCODING -1
SWIDTH 626 0
DWIDTH 16 0
BBX 15 25 1 -4
BITMAP
0006
0006
0006
000E
000C
000C
000C
001C
0018
0018
0018
3838
F830
F830
1C30
1C70
0C60
0E60
0E60
06E0
07C0
03C0
03C0
03C0
0180
ENDCHAR
STARTCHAR infinity
ENCODING -1
SWIDTH 799 0
DWIDTH 21 0
BBX 18 10 1 2
BITMAP
080200
3F1F80
63B8C0
C1F0C0
C0E040
C0E040
C1F0C0
63B8C0
3F1F80
1C0600
ENDCHAR
STARTCHAR integral
ENCODING -1
SWIDTH 395 0
DWIDTH 10 0
BBX 10 26 0 -4
BITMAP
03C0
07C0
0E00
0E00
0C00
0C00
0C00
0C00
0C00
0C00
0C00
0C00
0C00
0E00
0E00
0E00
0E00
0E00
0E00
0E00
0E00
0E00
0C00
1C00
7C00
F800
ENDCHAR
STARTCHAR approxequal
ENCODING -1
SWIDTH 590 0
DWIDTH 15 0
BBX 13 10 1 2
BITMAP
1800
7E18
E7F8
C1F0
0000
1C00
7E18
6738
C3F0
00E0
ENDCHAR
STARTCHAR notequal
ENCODING -1
SWIDTH 590 0
DWIDTH 15 0
BBX 13 13 1 0
BITMAP
00C0
0080
FFF8
FFF8
0300
0300
0200
0600
FFF8
FFF8
0C00
1800
0800
ENDCHAR
STARTCHAR lessequal
ENCODING -1
SWIDTH 590 0
DWIDTH 15 0
BBX 13 16 1 0
BITMAP
0018
0078
01E0
0780
3E00
F000
E000
7800
1E00
0780
01E0
0078
0018
0000
FFF8
FFF8
ENDCHAR
STARTCHAR greaterequal
ENCODING -1
SWIDTH 590 0
DWIDTH 15 0
BBX 13 16 1 0
BITMAP
C000
F800
3E00
0780
01E0
0078
0018
0078
03E0
0F00
3C00
F000
C000
0000
FFF8
FFF8
ENDCHAR
STARTCHAR lozenge
ENCODING -1
SWIDTH 626 0
DWIDTH 16 0
BBX 13 20 2 -1
BITMAP
0700
0F00
0F80
1D80
39C0
38C0
70E0
7060
E070
C038
C038
E070
6070
70E0
30E0
39C0
1980
1F80
0F00
0F00
ENDCHAR
STARTCHAR uni02C9
ENCODING -1
SWIDTH 278 0
DWIDTH 7 0
BBX 7 2 0 16
BITMAP
FE
FE
ENDCHAR
STARTCHAR uni03A9
ENCODING -1
SWIDTH 786 0
DWIDTH 20 0
BBX 18 18 1 0
BITMAP
03F000
0FFC00
1FBF00
3C0F00
780780
700380
7003C0
7001C0
7001C0
7001C0
7003C0
700380
300380
380700
1C0600
0E0C00
FF1FC0
FF1FC0
ENDCHAR
STARTCHAR afii61289
ENCODING -1
SWIDTH 552 0
DWIDTH 14 0
BBX 13 19 1 0
BITMAP
0F80
1FC0
1CC0
38E0
3860
38E0
38C0
39C0
3980
3B80
3F00
3E00
3C00
F800
F810
BC38
3EF0
1FE0
0780
ENDCHAR
STARTCHAR uni03BC
ENCODING -1
SWIDTH 556 0
DWIDTH 14 0
BBX 11 19 2 -5
BITMAP
C0C0
E0E0
E0E0
E0E0
E0E0
E0E0
E0E0
E0E0
E0E0
E1E0
E1E0
FFE0
FFE0
FEC0
E000
E000
E000
E000
C000
ENDCHAR
STARTCHAR uni2215
ENCODING -1
SWIDTH 167 0
DWIDTH 4 0
BBX 13 18 -4 0
BITMAP
0030
0038
0070
00F0
01E0
01C0
03C0
0780
0700
0F00
1E00
1C00
3C00
7800
7000
E000
E000
C000
ENDCHAR
ENDFONT
